<svg width="42" height="39" viewBox="0 0 42 39" fill="none" xmlns="http://www.w3.org/2000/svg">
<g filter="url(#filter0_d)">
<path d="M31.046 2.50713L5.80306 23.607C4.80726 24.4394 5.0457 26.3652 6.33565 27.9084C7.62559 29.4516 9.47855 30.0279 10.4744 29.1955L35.7173 8.09564C36.7131 7.26327 36.4746 5.33747 35.1847 3.79424C33.8947 2.25102 32.0418 1.67476 31.046 2.50713Z" fill="#101010" fill-opacity="0.92" shape-rendering="crispEdges"/>
<path d="M6.12373 23.9907L31.3666 2.89076C31.6904 2.6201 32.2064 2.53511 32.8565 2.73728C33.5008 2.93764 34.2085 3.40601 34.801 4.11491C35.3936 4.82381 35.729 5.60337 35.8119 6.27295C35.8956 6.9486 35.7204 7.44134 35.3966 7.712L10.1537 28.8119C9.82989 29.0826 9.31388 29.1676 8.66379 28.9654C8.01953 28.765 7.31183 28.2967 6.71928 27.5878C6.12673 26.8789 5.79132 26.0993 5.70841 25.4297C5.62476 24.7541 5.79993 24.2613 6.12373 23.9907Z" stroke="black" shape-rendering="crispEdges"/>
</g>
<path d="M6.30199 7.34696L31.3125 28.7218C31.6304 28.9935 32.147 29.0825 32.8084 28.8794C33.463 28.6784 34.1868 28.2062 34.7987 27.4901C35.4106 26.7741 35.7644 25.9856 35.8609 25.3077C35.9585 24.6227 35.79 24.1263 35.4721 23.8546L10.4616 2.47981C10.1437 2.20814 9.62715 2.11909 8.9657 2.3222C8.31111 2.52319 7.58736 2.99544 6.97543 3.71146C6.3635 4.42747 6.00978 5.21595 5.91323 5.89386C5.81567 6.57889 5.98411 7.0753 6.30199 7.34696Z" fill="#161616" fill-opacity="0.92" stroke="black"/>
<defs>
<filter id="filter0_d" x="0" y="1" width="41.5203" height="37.7027" filterUnits="userSpaceOnUse" color-interpolation-filters="sRGB">
<feFlood flood-opacity="0" result="BackgroundImageFix"/>
<feColorMatrix in="SourceAlpha" type="matrix" values="0 0 0 0 0 0 0 0 0 0 0 0 0 0 0 0 0 0 127 0" result="hardAlpha"/>
<feOffset dy="4"/>
<feGaussianBlur stdDeviation="2"/>
<feComposite in2="hardAlpha" operator="out"/>
<feColorMatrix type="matrix" values="0 0 0 0 0 0 0 0 0 0 0 0 0 0 0 0 0 0 0.25 0"/>
<feBlend mode="normal" in2="BackgroundImageFix" result="effect1_dropShadow"/>
<feBlend mode="normal" in="SourceGraphic" in2="effect1_dropShadow" result="shape"/>
</filter>
</defs>
</svg>
