<svg width="61" height="59" viewBox="0 0 61 59" fill="none" xmlns="http://www.w3.org/2000/svg">
<path d="M54 43H19C17.8954 43 17 43.8954 17 45C17 46.1046 17.8954 47 19 47H54C55.1046 47 56 46.1046 56 45C56 43.8954 55.1046 43 54 43Z" fill="white"/>
<path d="M24 59C26.7614 59 29 56.9853 29 54.5C29 52.0147 26.7614 50 24 50C21.2386 50 19 52.0147 19 54.5C19 56.9853 21.2386 59 24 59Z" fill="white"/>
<path d="M50 59C52.7614 59 55 56.9853 55 54.5C55 52.0147 52.7614 50 50 50C47.2386 50 45 52.0147 45 54.5C45 56.9853 47.2386 59 50 59Z" fill="white"/>
<path d="M59.5 16.5H12.5V17.5H59.5V16.5Z" fill="white" stroke="white"/>
<path d="M10 0.5H1C0.723858 0.5 0.5 0.723858 0.5 1C0.5 1.27614 0.723858 1.5 1 1.5H10C10.2761 1.5 10.5 1.27614 10.5 1C10.5 0.723858 10.2761 0.5 10 0.5Z" fill="white" stroke="white"/>
<path d="M55 39.5H18C17.7239 39.5 17.5 39.7239 17.5 40C17.5 40.2761 17.7239 40.5 18 40.5H55C55.2761 40.5 55.5 40.2761 55.5 40C55.5 39.7239 55.2761 39.5 55 39.5Z" fill="white" stroke="white"/>
<path d="M60.6093 16.7256L58.6494 16.3269L54.0001 39.1792L55.9599 39.578L60.6093 16.7256Z" fill="white"/>
<path d="M10.8512 1.29646C10.7411 0.755262 10.2131 0.405795 9.67194 0.515903C9.13074 0.626011 8.78128 1.154 8.89138 1.6952L16.5911 39.5403C16.7012 40.0815 17.2291 40.4309 17.7703 40.3208C18.3115 40.2107 18.661 39.6827 18.5509 39.1415L10.8512 1.29646Z" fill="white"/>
</svg>
